<svg xmlns="http://www.w3.org/2000/svg" width="142" height="143" viewBox="0 0 142 143" fill="none">
  <path d="M2.78829 91.3406C-0.137628 81.1391 -0.770521 70.4095 0.935586 59.9309C2.64169 49.4524 6.64396 39.4881 12.6517 30.7618C18.6594 22.0354 26.5218 14.7662 35.6676 9.48202C44.8135 4.19786 55.0133 1.03146 65.5261 0.212812C76.0389 -0.605838 86.6009 0.943816 96.4447 4.74922C106.289 8.55462 115.167 14.5202 122.436 22.2127C129.704 29.9052 135.18 39.1314 138.465 49.2213C141.751 59.3111 142.763 70.0112 141.43 80.5444L132.274 79.3686C133.434 70.2048 132.553 60.8957 129.695 52.1175C126.837 43.3393 122.073 35.3125 115.749 28.6201C109.425 21.9276 101.701 16.7375 93.1369 13.4268C84.5727 10.1161 75.3839 8.76792 66.2377 9.48014C57.0916 10.1924 48.2178 12.9471 40.2608 17.5444C32.3039 22.1416 25.4637 28.4658 20.237 36.0577C15.0102 43.6496 11.5283 52.3186 10.044 61.4349C8.55965 70.5512 9.11026 79.8861 11.6558 88.7613L2.78829 91.3406Z" fill="#E52055"/>
  <ellipse cx="136.648" cy="80.6476" rx="4.64756" ry="4.64757" fill="#E52055"/>
  <ellipse cx="7.13957" cy="89.3753" rx="4.64757" ry="4.64757" fill="#E52055"/>
</svg>