<svg xmlns="http://www.w3.org/2000/svg" width="32" height="32" viewBox="0 0 32 32" fill="none">
  <path d="M15.9864 28.0008C17.931 28.0008 18.9936 26.681 18.9936 24.8212H12.9695C12.9695 26.681 14.0365 28.0008 15.9864 28.0008Z" fill="#494E50"/>
  <path d="M25.7458 21.7739C24.7828 20.5565 22.8889 19.8424 22.8889 14.3901C22.8889 8.79365 20.3103 6.54141 17.9096 6.00394C17.6846 5.9502 17.5219 5.87768 17.5219 5.6499V5.47927C17.5268 5.28411 17.491 5.08997 17.4165 4.90828C17.3421 4.7266 17.2305 4.56103 17.0884 4.42133C16.9463 4.28163 16.7764 4.17062 16.5889 4.09482C16.4014 4.01903 16.2 3.97998 15.9965 3.97998C15.7931 3.97998 15.5917 4.01903 15.4041 4.09482C15.2166 4.17062 15.0468 4.28163 14.9047 4.42133C14.7626 4.56103 14.651 4.7266 14.5765 4.90828C14.5021 5.08997 14.4663 5.28411 14.4712 5.47927V5.6499C14.4712 5.87171 14.3085 5.9502 14.0835 6.00394C11.6765 6.54994 9.10418 8.79365 9.10418 14.3901C9.10418 19.8424 7.21025 20.5505 6.24729 21.7739C6.10946 21.9515 6.02582 22.1624 6.00571 22.383C5.9856 22.6036 6.02981 22.8253 6.13339 23.0231C6.23698 23.221 6.39587 23.3874 6.59231 23.5036C6.78876 23.6199 7.01502 23.6815 7.24582 23.6815H24.7579C24.9878 23.6796 25.2127 23.6166 25.4076 23.4996C25.6025 23.3826 25.7598 23.2161 25.8621 23.0186C25.9644 22.8211 26.0077 22.6002 25.9872 22.3805C25.9666 22.1608 25.8831 21.9508 25.7458 21.7739Z" fill="#494E50"/>
</svg>