<svg xmlns="http://www.w3.org/2000/svg" width="32" height="34" viewBox="0 0 32 34" fill="none">
  <path d="M8.55957 19.1489H11.1217V22.3675H8.55957V19.1489Z" fill="#494E50"/>
  <path d="M14.9967 16.0083H12.4346V22.3678H14.9967V16.0083Z" fill="#494E50"/>
  <path d="M16.3027 17.6812H18.8649V22.3749H16.3027V17.6812Z" fill="#494E50"/>
  <path d="M22.733 13.1426H20.1709V22.3677H22.733V13.1426Z" fill="#494E50"/>
  <path d="M10.4581 25.6216C10.4581 25.9646 10.18 26.2427 9.83694 26.2427C9.49391 26.2427 9.21582 25.9646 9.21582 25.6216C9.21582 25.2786 9.49391 25.0005 9.83694 25.0005C10.18 25.0005 10.4581 25.2786 10.4581 25.6216Z" fill="#494E50"/>
  <path d="M13.7119 26.2427C14.055 26.2427 14.3331 25.9646 14.3331 25.6216C14.3331 25.2786 14.055 25.0005 13.7119 25.0005C13.3689 25.0005 13.0908 25.2786 13.0908 25.6216C13.0908 25.9646 13.3689 26.2427 13.7119 26.2427Z" fill="#494E50"/>
  <path d="M18.2012 25.6216C18.2012 25.9646 17.9231 26.2427 17.5801 26.2427C17.2371 26.2427 16.959 25.9646 16.959 25.6216C16.959 25.2786 17.2371 25.0005 17.5801 25.0005C17.9231 25.0005 18.2012 25.2786 18.2012 25.6216Z" fill="#494E50"/>
  <path d="M21.4551 26.2427C21.7981 26.2427 22.0762 25.9646 22.0762 25.6216C22.0762 25.2786 21.7981 25.0005 21.4551 25.0005C21.1121 25.0005 20.834 25.2786 20.834 25.6216C20.834 25.9646 21.1121 26.2427 21.4551 26.2427Z" fill="#494E50"/>
  <path fill-rule="evenodd" clip-rule="evenodd" d="M21.0135 4.11615C21.5386 4.35497 22.0671 4.59526 22.4794 4.9834H24.3912C25.9934 4.9834 27.2921 6.28211 27.2921 7.88433V30.6894C27.2921 32.2917 25.9934 33.5904 24.3912 33.5904H6.90093C5.29871 33.5904 4 32.2917 4 30.6894V7.88433C4 6.28211 5.29871 4.9834 6.90093 4.9834H8.82048C9.22704 4.60288 9.74945 4.36466 10.2698 4.1274C10.6156 3.96969 10.9606 3.8124 11.27 3.61402C11.6528 3.36872 11.8763 2.89856 12.1245 2.37646C12.6405 1.29106 13.2632 -0.0188574 15.6461 0.000205658C18.0263 -0.0188365 18.6503 1.28819 19.1681 2.37289C19.418 2.89643 19.6432 3.36816 20.0292 3.61402C20.3343 3.80731 20.6732 3.96142 21.0135 4.11615ZM7.7832 8.51957V10.284H23.523V8.51957H24.2642V29.3554H7.1762V8.51957H7.7832ZM14.0862 3.44462C14.0862 4.20691 14.7003 4.82097 15.4625 4.82097C16.2248 4.82097 16.8389 4.20691 16.8389 3.44462C16.8389 2.68233 16.2248 2.06826 15.4625 2.06826C14.7003 2.06826 14.0862 2.68233 14.0862 3.44462Z" fill="#494E50"/>
</svg>