<svg xmlns="http://www.w3.org/2000/svg" width="32" height="32" viewBox="0 0 32 32" fill="none">
  <g clip-path="url(#clip0_7101_329)">
    <path fill-rule="evenodd" clip-rule="evenodd" d="M3.90909 4C3.53538 4 3.17697 4.14846 2.91271 4.41271C2.64846 4.67697 2.5 5.03538 2.5 5.40909V19.9545C2.5 20.3283 2.64846 20.6867 2.91271 20.9509C3.17697 21.2152 3.53538 21.3636 3.90909 21.3636H27.1818C27.5555 21.3636 27.9139 21.2152 28.1782 20.9509C28.4425 20.6867 28.5909 20.3283 28.5909 19.9545V5.40909C28.5909 5.03538 28.4425 4.67697 28.1782 4.41271C27.9139 4.14846 27.5555 4 27.1818 4H3.90909ZM0.791393 2.29139C1.61826 1.46453 2.73973 1 3.90909 1H27.1818C28.3512 1 29.4727 1.46453 30.2995 2.29139C31.1264 3.11826 31.5909 4.23973 31.5909 5.40909V19.9545C31.5909 21.1239 31.1264 22.2454 30.2995 23.0722C29.4727 23.8991 28.3512 24.3636 27.1818 24.3636H17.0459V27.1816H21.3639C22.1923 27.1816 22.8639 27.8532 22.8639 28.6816C22.8639 29.5101 22.1923 30.1816 21.3639 30.1816H15.5767C15.5665 30.1818 15.5562 30.182 15.5459 30.182C15.5356 30.182 15.5253 30.1818 15.5151 30.1816H9.72754C8.89911 30.1816 8.22754 29.5101 8.22754 28.6816C8.22754 27.8532 8.89911 27.1816 9.72754 27.1816H14.0459V24.3636H3.90909C2.73973 24.3636 1.61826 23.8991 0.791393 23.0722C-0.035472 22.2454 -0.5 21.1239 -0.5 19.9545V5.40909C-0.5 4.23973 -0.0354719 3.11826 0.791393 2.29139Z" fill="#494E50"/>
  </g>
  <defs>
    <clipPath id="clip0_7101_329">
      <rect width="32" height="32" fill="white"/>
    </clipPath>
  </defs>
</svg>