<svg xmlns="http://www.w3.org/2000/svg" width="48" height="23" viewBox="0 0 48 23" fill="none">
  <path d="M36.1169 0.0117727C33.9425 0.0217755 31.9046 0.572839 30.1468 1.52765C30.1342 1.52038 30.1206 1.51492 30.108 1.50765C30.0945 1.51492 30.0809 1.52038 30.0683 1.52765C28.3328 0.532828 26.2068 0.033597 24.0788 0.0272316C21.9508 0.033597 19.8248 0.532828 18.0893 1.52765C18.0767 1.52038 18.0631 1.51401 18.0496 1.50674C18.037 1.51401 18.0224 1.52038 18.0098 1.52765C16.1164 0.437347 14.0368 -0.0327853 11.9845 0.00176985C5.76529 0.146356 -0.186425 4.93861 0.00447174 11.325C-0.186425 17.7095 5.76626 22.5054 11.9854 22.6491C14.0378 22.6836 16.1164 22.2126 18.0108 21.1213C18.0234 21.1286 18.0379 21.135 18.0505 21.1423C18.0631 21.135 18.0767 21.1286 18.0903 21.1213C19.8258 22.1171 21.9518 22.6163 24.0798 22.6227C26.2077 22.6163 28.3328 22.1171 30.0683 21.1213C30.0828 21.1277 30.0974 21.1332 30.1119 21.1404C30.1235 21.1341 30.1361 21.1286 30.1478 21.1213C32.4201 22.168 34.5345 22.6463 36.4561 22.6791C49.8867 22.8227 53.819 1.16392 36.1179 0.0117727H36.1169ZM12.8314 12.7681V18.5415H9.92433V12.7681L5.41645 4.46393H8.59677L11.3992 10.1383L14.1589 4.46393H17.3402L12.8314 12.7681ZM23.2726 18.5915C20.9973 18.5915 19.2696 18.1369 17.7947 16.7328L19.6911 14.9532C21.0438 16.44 25.9858 16.8638 25.9703 14.3995C25.9345 13.3164 25.3976 12.8881 24.1786 12.719C22.6728 12.5489 20.3713 12.3016 19.4595 11.315C15.0737 5.84069 24.1515 1.81319 28.4559 5.91798L26.6012 7.63846C23.3113 4.77311 18.3606 8.73059 23.041 10.011C30.6914 9.7536 30.923 18.537 23.2726 18.5915ZM37.9271 18.5424H31.6478V4.46393H37.6741C42.2276 3.98471 43.872 9.69541 40.4543 11.324C44.2364 12.8608 42.4524 19.0198 37.9271 18.5415V18.5424Z" fill="#959595"/>
  <path d="M37.4435 6.91553H34.5781V10.1583H37.4435C40.0201 10.2828 40.0201 6.79004 37.4435 6.91553Z" fill="#959595"/>
  <path d="M37.6325 12.6299H34.5781V16.0909H37.6325C40.2479 16.16 40.2643 12.5508 37.6325 12.6299Z" fill="#959595"/>
</svg>