<svg xmlns="http://www.w3.org/2000/svg" width="70" height="78" viewBox="0 0 70 78" fill="none">
  <path d="M5.35 69.5552C3.94 69.2052 2.75 68.8452 2.75 67.7752C2.75 66.6252 4.11 66.1352 5.11 66.1352C6.11 66.1352 7.16 66.3752 8.1 67.0952L8.63 66.1152C7.58 65.2753 6.4 64.9552 5.11 64.9552C3.24 64.9552 1.44 65.8353 1.44 67.7653C1.44 69.6953 3.31 70.2852 5.19 70.7552C6.53 71.0952 7.89 71.4452 7.89 72.6352C7.89 73.9152 6.47 74.5153 5.11 74.5153C3.52 74.5153 2.39 73.9152 1.55 73.1052L1 74.0652C1.76 74.8752 3.08 75.6953 5.09 75.6953C7.1 75.6953 9.24 74.7752 9.24 72.6452C9.24 70.7052 7.29 70.0452 5.35 69.5652V69.5552Z" fill="#015B5E"/>
  <path d="M15.24 67.5452C13.96 67.5452 12.82 68.0452 12.23 69.0552V67.7052H11.05V77.7952H12.28V74.1652C12.86 75.1752 13.99 75.6852 15.24 75.6852C17.42 75.6852 18.96 73.8852 18.96 71.6052C18.96 69.3252 17.43 67.5452 15.24 67.5452ZM14.96 74.4952C13.46 74.4952 12.28 73.2452 12.28 71.6052C12.28 69.9652 13.39 68.7352 14.96 68.7352C16.53 68.7352 17.69 69.9552 17.69 71.6052C17.69 73.2552 16.46 74.4952 14.96 74.4952Z" fill="#015B5E"/>
  <path d="M24.51 67.5452C22.2 67.5452 20.37 69.3452 20.37 71.6252C20.37 73.9052 22.2 75.6852 24.51 75.6852C26.82 75.6852 28.65 73.9052 28.65 71.6252C28.65 69.3452 26.82 67.5452 24.51 67.5452ZM24.51 74.4952C22.88 74.4952 21.63 73.2752 21.63 71.6252C21.63 69.9752 22.87 68.7352 24.51 68.7352C26.15 68.7352 27.39 69.9652 27.39 71.6252C27.39 73.2852 26.15 74.4952 24.51 74.4952Z" fill="#015B5E"/>
  <path d="M33.14 74.5853C32.51 74.5853 32.04 74.2752 32.04 73.2052V68.7052H34.72V67.6953H32.04V65.7852L30.81 66.0153V67.7052H29.63V68.7152H30.81V73.1752C30.81 75.0052 31.63 75.6752 33.02 75.6752C33.88 75.6752 34.52 75.3052 34.83 75.0952L34.43 74.1452C34.43 74.1452 33.86 74.5752 33.14 74.5752V74.5853Z" fill="#015B5E"/>
  <path d="M40.78 65.1152H36.48V75.5252H37.77V72.9252H40.76C43.67 72.9252 45.25 71.1752 45.25 69.0252C45.25 66.8752 43.67 65.1252 40.78 65.1252V65.1152ZM40.9 71.7952H37.78V66.2352H40.91C42.74 66.2352 43.92 67.4853 43.92 69.0153C43.92 70.5452 42.74 71.7952 40.9 71.7952Z" fill="#015B5E"/>
  <path d="M53.32 69.0652C52.74 68.0552 51.62 67.5452 50.36 67.5452C48.18 67.5452 46.65 69.3252 46.64 71.6252C46.64 73.8852 48.17 75.6852 50.36 75.6852C51.62 75.6852 52.74 75.1852 53.32 74.1652V75.5352H54.55V67.7152H53.32V69.0853V69.0652ZM50.64 74.4952C49.07 74.4952 47.91 73.2852 47.91 71.6252C47.91 69.9652 49.14 68.7352 50.64 68.7352C52.14 68.7352 53.32 69.9852 53.32 71.6252C53.32 73.2652 52.2 74.4952 50.64 74.4952Z" fill="#015B5E"/>
  <path d="M57.85 69.3552V67.6953H56.62V75.5153H57.85V71.8052C57.85 69.8952 59.05 68.8652 60.89 68.8652V67.5352C59.32 67.5352 58.31 68.3252 57.85 69.3452V69.3552Z" fill="#015B5E"/>
  <path d="M65.8 71.1652L68.93 67.6953H67.38L63.53 72.0652V64.9552H62.31V75.5252H63.54V73.7052L65.04 72.0252L67.95 75.5252H69.47L65.8 71.1652Z" fill="#015B5E"/>
  <path d="M57.3 23.8752C57.05 10.6353 46.33 0.0452501 33.39 0.28525C27.12 0.40525 21.27 3.01525 16.93 7.64525C12.6 12.2653 10.28 18.3353 10.4 24.7353C10.51 30.3752 12.58 35.8053 16.16 40.0353H16.01L17.22 41.2052C17.55 41.5452 17.88 41.8653 18.23 42.1853L34.5 58.0053L49.57 42.1453H49.58C51.64 40.2253 53.33 38.0053 54.61 35.5053C54.94 34.8653 54.67 34.0753 54.01 33.7653C53.39 33.4853 52.65 33.7253 52.33 34.3353C51.17 36.5952 49.63 38.6152 47.76 40.3353H47.75L47.61 40.4853C47.54 40.5553 47.46 40.6453 47.42 40.6853C47.3 40.8153 47.06 41.0653 46.86 41.2853L34.44 54.3653L22.3 42.5653H22.46L20.03 40.3553C15.66 36.3753 13.08 30.6652 12.97 24.6752C12.86 18.9252 14.94 13.4952 18.81 9.36525C22.68 5.24525 27.87 2.92525 33.44 2.81525C33.51 2.81525 33.57 2.81525 33.64 2.81525C33.71 2.81525 33.77 2.81525 33.83 2.81525C45.16 2.81525 54.52 12.1853 54.75 23.9053C54.77 25.0053 54.71 26.0952 54.57 27.1752H51.77C51.45 24.6452 49.26 22.6752 46.62 22.6752C43.98 22.6752 41.79 24.6353 41.47 27.1752H36.39C36.07 24.6452 33.88 22.6752 31.24 22.6752C28.6 22.6752 26.41 24.6353 26.09 27.1752H24.04C23.66 25.9652 23.19 23.6252 24.17 21.6553C24.94 20.1152 26.54 18.9853 29.06 18.3853L29.75 18.2153L29.98 17.5553C30.02 17.4452 30.55 15.9552 31.82 14.4152V19.3153H50.56L50.22 17.7752C50.22 17.7752 50.22 17.7652 50.22 17.7552V17.7253C50.22 17.7253 50.2 17.6753 50.19 17.6353C50.17 17.5653 50.14 17.4552 50.1 17.3253C50.02 17.0653 49.9 16.7052 49.74 16.2752C49.4 15.4152 48.87 14.2752 48.05 13.1252C46.42 10.8252 43.66 8.50525 39.24 8.46525C31.92 8.38525 28.7 14.1452 27.83 16.0752C25 16.8853 22.97 18.3652 21.89 20.5252C20.92 22.4753 20.93 24.5452 21.18 26.1252C21.43 27.7052 21.92 28.8353 21.98 28.9653L22.32 29.7153H26.44C27.21 31.5952 29.08 32.9253 31.25 32.9253C33.42 32.9253 35.29 31.6252 36.07 29.7153H41.82C42.59 31.5952 44.46 32.9253 46.63 32.9253C48.8 32.9253 50.67 31.5952 51.44 29.7153H56.48L56.61 29.4053C56.9 28.6953 57.08 27.6952 57.19 26.7052C57.3 25.7052 57.34 24.6752 57.33 23.8552L57.3 23.8752ZM11.04 26.8853C10.96 26.1753 10.91 25.4552 10.9 24.7253C10.91 25.4452 10.96 26.1653 11.04 26.8853ZM12.59 33.1053C12.44 32.7253 12.32 32.3452 12.19 31.9552C12.32 32.3353 12.45 32.7253 12.59 33.1053ZM11.89 31.0852C11.77 30.6752 11.67 30.2552 11.58 29.8452C11.68 30.2652 11.77 30.6752 11.89 31.0852ZM11.37 29.0152C11.28 28.5452 11.21 28.0752 11.15 27.6052C11.22 28.0752 11.28 28.5553 11.37 29.0152ZM12.96 33.9653C13.12 34.3253 13.28 34.6953 13.45 35.0452C13.27 34.6953 13.12 34.3253 12.96 33.9653ZM15.04 37.7052C15.26 38.0252 15.47 38.3452 15.7 38.6553C15.47 38.3452 15.25 38.0252 15.04 37.7052ZM16.82 40.0353C16.64 39.8353 16.49 39.6152 16.32 39.4053C16.63 39.7853 16.94 40.1753 17.28 40.5353C17.28 40.5353 17.28 40.5353 17.27 40.5253C17.27 40.5253 17.27 40.5252 17.26 40.5153C17.12 40.3553 16.97 40.2052 16.83 40.0452L16.82 40.0353ZM17.75 41.0353C17.69 40.9753 17.63 40.9153 17.57 40.8553C17.89 41.1853 18.23 41.5153 18.57 41.8253C18.29 41.5653 18.02 41.3053 17.75 41.0353ZM33.62 2.32525C33.55 2.32525 33.49 2.32525 33.42 2.32525C33.42 2.32525 33.68 2.32525 33.82 2.32525C33.75 2.32525 33.69 2.32525 33.62 2.32525ZM43.98 27.8153C43.98 26.3953 45.15 25.2353 46.61 25.2353C48.07 25.2353 49.24 26.3953 49.24 27.8153C49.24 29.2353 48.07 30.3953 46.61 30.3953C45.15 30.3953 43.98 29.2353 43.98 27.8153ZM28.6 27.8153C28.6 26.3953 29.77 25.2353 31.23 25.2353C32.69 25.2353 33.86 26.3953 33.86 27.8153C33.86 27.9552 33.85 28.1053 33.83 28.2353C33.62 29.4853 32.54 30.3953 31.24 30.3953C29.78 30.3953 28.61 29.2353 28.61 27.8153H28.6ZM34.38 16.7852V12.2452C35.63 11.5152 37.21 11.0052 39.2 11.0252H39.44C44.13 11.1852 46.29 14.6552 47.19 16.7852H34.38ZM33.87 11.9552C34.19 11.7552 34.53 11.5752 34.88 11.4052C34.52 11.5752 34.18 11.7552 33.87 11.9552ZM34.94 11.3853C35.29 11.2253 35.66 11.0852 36.04 10.9653C35.65 11.0852 35.28 11.2253 34.94 11.3853ZM37.5 10.6353C37.92 10.5752 38.36 10.5352 38.81 10.5252C38.35 10.5352 37.91 10.5653 37.5 10.6353ZM47.31 15.8552C47.31 15.8552 47.33 15.8852 47.33 15.9052C47.33 15.8952 47.31 15.8752 47.31 15.8552ZM45.35 13.0752C45.42 13.1452 45.49 13.2153 45.55 13.2952C45.48 13.2253 45.42 13.1552 45.35 13.0752ZM44.86 10.6952C45.04 10.8152 45.22 10.9253 45.38 11.0553C45.22 10.9253 45.03 10.8152 44.86 10.6952ZM40 10.5652C40.13 10.5752 40.27 10.5852 40.4 10.6052C40.27 10.5852 40.14 10.5752 40 10.5652ZM43.6 11.6952C43.65 11.7252 43.7 11.7653 43.76 11.7952C43.71 11.7653 43.66 11.7252 43.6 11.6952ZM44.24 12.1152C44.32 12.1652 44.38 12.2252 44.46 12.2852C44.39 12.2252 44.32 12.1753 44.24 12.1152ZM44.82 12.5752C44.89 12.6353 44.97 12.7052 45.04 12.7752C44.97 12.7052 44.9 12.6452 44.82 12.5752ZM29.54 17.2552C29.54 17.2552 29.56 17.2052 29.57 17.1752C29.57 17.1952 29.55 17.2352 29.54 17.2552ZM29.66 16.9653C29.66 16.9653 29.7 16.8752 29.72 16.8253C29.7 16.8752 29.67 16.9252 29.66 16.9653ZM29.85 16.5452C29.88 16.4753 29.92 16.4152 29.95 16.3352C29.91 16.4052 29.88 16.4753 29.85 16.5452ZM30.12 16.0252C30.16 15.9452 30.21 15.8652 30.26 15.7752C30.21 15.8552 30.16 15.9452 30.12 16.0252ZM30.48 15.4253C30.54 15.3352 30.6 15.2452 30.66 15.1452C30.6 15.2352 30.54 15.3352 30.48 15.4253ZM30.92 14.7752C30.99 14.6752 31.06 14.5852 31.14 14.4852C31.06 14.5852 30.99 14.6852 30.92 14.7752ZM48.16 14.2352C48.08 14.0952 47.98 13.9552 47.88 13.8152C47.97 13.9552 48.07 14.0952 48.16 14.2352ZM49.69 17.7652C49.69 17.7652 49.67 17.6953 49.66 17.6553C49.66 17.6953 49.68 17.7352 49.69 17.7652ZM49.6 17.4753C49.58 17.4153 49.56 17.3452 49.54 17.2752C49.56 17.3452 49.59 17.4153 49.6 17.4753ZM49.25 16.4552C49.21 16.3552 49.16 16.2352 49.11 16.1252C49.16 16.2352 49.21 16.3452 49.25 16.4552ZM48.6 15.0352C48.53 14.9052 48.45 14.7653 48.37 14.6353C48.45 14.7753 48.53 14.9052 48.6 15.0352ZM46.98 12.5953C46.86 12.4552 46.72 12.3153 46.59 12.1753C46.72 12.3153 46.86 12.4453 46.98 12.5953ZM46.23 11.8053C46.09 11.6652 45.93 11.5452 45.78 11.4052C45.93 11.5352 46.09 11.6652 46.23 11.8053ZM44.41 10.3853C44.22 10.2653 44 10.1752 43.79 10.0652C44 10.1752 44.21 10.2653 44.41 10.3853ZM43.31 9.82525C43.09 9.72525 42.84 9.65525 42.6 9.56525C42.84 9.64525 43.09 9.72525 43.31 9.82525Z" fill="#015B5E"/>
</svg>