<svg xmlns="http://www.w3.org/2000/svg" width="49" height="48" viewBox="0 0 49 48" fill="none">
  <g clip-path="url(#clip0_5035_18770)">
    <path d="M2.29719 54.6359C1.23517 54.3722 0.338861 54.1011 0.338861 53.2952C0.338861 52.429 1.36322 52.0599 2.11642 52.0599C2.86963 52.0599 3.6605 52.2407 4.36851 52.783L4.76771 52.0448C3.97684 51.4121 3.08806 51.1711 2.11642 51.1711C0.707931 51.1711 -0.647838 51.8339 -0.647838 53.2876C-0.647838 54.7413 0.760656 55.1857 2.17668 55.5397C3.18598 55.7958 4.21033 56.0594 4.21033 56.9557C4.21033 57.9198 3.14078 58.3718 2.11642 58.3718C0.918829 58.3718 0.0677069 57.9198 -0.564985 57.3097L-0.979248 58.0328C-0.406812 58.6429 0.587419 59.2605 2.10136 59.2605C3.6153 59.2605 5.22716 58.5676 5.22716 56.9633C5.22716 55.5021 3.75841 55.0049 2.29719 54.6434V54.6359Z" fill="#66EAE0"/>
    <path d="M9.74639 53.1219C8.78229 53.1219 7.92364 53.4985 7.47924 54.2593V53.2424H6.59046V60.8423H7.5169V58.1081C7.95376 58.8689 8.80489 59.253 9.74639 59.253C11.3884 59.253 12.5483 57.8972 12.5483 56.1799C12.5483 54.4626 11.3959 53.1219 9.74639 53.1219ZM9.53549 58.3567C8.40569 58.3567 7.5169 57.4152 7.5169 56.1799C7.5169 54.9447 8.35296 54.0182 9.53549 54.0182C10.718 54.0182 11.5917 54.9371 11.5917 56.1799C11.5917 57.4227 10.6653 58.3567 9.53549 58.3567Z" fill="#66EAE0"/>
    <path d="M16.7286 53.1219C14.9887 53.1219 13.6103 54.4777 13.6103 56.195C13.6103 57.9123 14.9887 59.253 16.7286 59.253C18.4685 59.253 19.8469 57.9123 19.8469 56.195C19.8469 54.4777 18.4685 53.1219 16.7286 53.1219ZM16.7286 58.3567C15.5009 58.3567 14.5594 57.4378 14.5594 56.195C14.5594 54.9522 15.4933 54.0182 16.7286 54.0182C17.9639 54.0182 18.8978 54.9447 18.8978 56.195C18.8978 57.4453 17.9639 58.3567 16.7286 58.3567Z" fill="#66EAE0"/>
    <path d="M23.2288 58.4245C22.7542 58.4245 22.4002 58.191 22.4002 57.3851V53.9956H24.4188V53.2349H22.4002V51.7963L21.4738 51.9695V53.2424H20.585V54.0032H21.4738V57.3625C21.4738 58.7408 22.0914 59.2455 23.1384 59.2455C23.7861 59.2455 24.2682 58.9668 24.5017 58.8086L24.2004 58.0931C24.2004 58.0931 23.7711 58.417 23.2288 58.417V58.4245Z" fill="#66EAE0"/>
    <path d="M28.9832 51.2916H25.7445V59.1325H26.7161V57.1742H28.9682C31.16 57.1742 32.3501 55.8561 32.3501 54.2367C32.3501 52.6173 31.16 51.2992 28.9832 51.2992V51.2916ZM29.0736 56.323H26.7236V52.1352H29.0812C30.4595 52.1352 31.3483 53.0767 31.3483 54.2291C31.3483 55.3815 30.4595 56.323 29.0736 56.323Z" fill="#66EAE0"/>
    <path d="M38.4284 54.2668C37.9916 53.5061 37.148 53.1219 36.199 53.1219C34.557 53.1219 33.4046 54.4626 33.397 56.195C33.397 57.8972 34.5494 59.253 36.199 59.253C37.148 59.253 37.9916 58.8764 38.4284 58.1081V59.14H39.3549V53.25H38.4284V54.2819V54.2668ZM36.4099 58.3567C35.2273 58.3567 34.3536 57.4453 34.3536 56.195C34.3536 54.9447 35.28 54.0182 36.4099 54.0182C37.5397 54.0182 38.4284 54.9597 38.4284 56.195C38.4284 57.4303 37.5849 58.3567 36.4099 58.3567Z" fill="#66EAE0"/>
    <path d="M41.8405 54.4852V53.2349H40.914V59.125H41.8405V56.3306C41.8405 54.892 42.7443 54.1162 44.1302 54.1162V53.1144C42.9477 53.1144 42.1869 53.7094 41.8405 54.4777V54.4852Z" fill="#66EAE0"/>
    <path d="M47.8284 55.8485L50.186 53.2349H49.0185L46.1187 56.5264V51.1711H45.1998V59.1325H46.1262V57.7617L47.256 56.4963L49.4478 59.1325H50.5927L47.8284 55.8485Z" fill="#66EAE0"/>
    <path d="M41.4262 20.2295C41.2379 10.257 33.1635 2.28059 23.4171 2.46136C18.6945 2.55174 14.2882 4.51761 11.0193 8.00495C7.75793 11.4848 6.01049 16.0567 6.10088 20.8772C6.18373 25.1253 7.74287 29.2152 10.4393 32.4013H10.3264L11.2377 33.2825C11.4863 33.5386 11.7349 33.7796 11.9985 34.0206L24.2531 45.9364L35.6039 33.9905H35.6115C37.1631 32.5444 38.436 30.8723 39.4001 28.9892C39.6486 28.5072 39.4453 27.9122 38.9481 27.6787C38.4812 27.4678 37.9238 27.6485 37.6828 28.108C36.8091 29.8102 35.6491 31.3317 34.2406 32.6272H34.2331L34.1276 32.7402C34.0749 32.7929 34.0147 32.8607 33.9845 32.8908C33.8941 32.9888 33.7134 33.1771 33.5627 33.3428L24.2079 43.1947L15.064 34.3069H15.1845L13.3542 32.6423C10.0627 29.6445 8.11947 25.3437 8.03662 20.832C7.95376 16.5011 9.52043 12.4112 12.4353 9.30046C15.3502 6.19725 19.2594 4.44982 23.4547 4.36697C23.5074 4.36697 23.5526 4.36697 23.6054 4.36697C23.6581 4.36697 23.7033 4.36697 23.7485 4.36697C32.2823 4.36697 39.3323 11.4245 39.5055 20.2521C39.5206 21.0806 39.4754 21.9016 39.3699 22.715H37.261C37.0199 20.8094 35.3704 19.3256 33.382 19.3256C31.3935 19.3256 29.744 20.8019 29.503 22.715H25.6767C25.4357 20.8094 23.7861 19.3256 21.7977 19.3256C19.8092 19.3256 18.1597 20.8019 17.9187 22.715H16.3746C16.0884 21.8037 15.7344 20.0412 16.4725 18.5573C17.0525 17.3974 18.2576 16.5463 20.1557 16.0944L20.6754 15.9663L20.8486 15.4692C20.8788 15.3864 21.278 14.2641 22.2345 13.1041V16.7948H36.3496L36.0935 15.6349C36.0935 15.6349 36.0935 15.6274 36.0935 15.6198V15.5973C36.0935 15.5973 36.0784 15.5596 36.0709 15.5295C36.0558 15.4767 36.0332 15.3939 36.0031 15.296C35.9429 15.1001 35.8525 14.829 35.732 14.5051C35.4759 13.8573 35.0767 12.9987 34.459 12.1325C33.2313 10.4001 31.1525 8.6527 27.8233 8.62257C22.3099 8.56232 19.8845 12.9008 19.2292 14.3545C17.0977 14.9646 15.5687 16.0793 14.7552 17.7062C14.0246 19.175 14.0321 20.7341 14.2204 21.9242C14.4087 23.1142 14.7778 23.9654 14.823 24.0633L15.0791 24.6282H18.1823C18.7623 26.0442 20.1707 27.046 21.8052 27.046C23.4397 27.046 24.8482 26.0668 25.4357 24.6282H29.7666C30.3465 26.0442 31.755 27.046 33.3895 27.046C35.024 27.046 36.4324 26.0442 37.0124 24.6282H40.8086L40.9065 24.3947C41.1249 23.8599 41.2605 23.1067 41.3433 22.361C41.4262 21.6078 41.4563 20.832 41.4488 20.2144L41.4262 20.2295ZM6.58293 22.4966C6.52267 21.9618 6.48501 21.4195 6.47748 20.8697C6.48501 21.412 6.52267 21.9543 6.58293 22.4966ZM7.7504 27.1815C7.63742 26.8953 7.54703 26.6091 7.44912 26.3154C7.54703 26.6016 7.64495 26.8953 7.7504 27.1815ZM7.22316 25.6601C7.13277 25.3513 7.05745 25.0349 6.98966 24.7261C7.06498 25.0424 7.13277 25.3513 7.22316 25.6601ZM6.83149 24.1009C6.7637 23.7469 6.71098 23.3929 6.66578 23.0389C6.71851 23.3929 6.7637 23.7545 6.83149 24.1009ZM8.02908 27.8293C8.1496 28.1005 8.27011 28.3791 8.39816 28.6428C8.26258 28.3791 8.1496 28.1005 8.02908 27.8293ZM9.59575 30.6463C9.76146 30.8873 9.91963 31.1283 10.0929 31.3618C9.91963 31.1283 9.75392 30.8873 9.59575 30.6463ZM10.9365 32.4013C10.8009 32.2506 10.6879 32.0849 10.5599 31.9267C10.7933 32.213 11.0268 32.5067 11.2829 32.7779C11.2829 32.7779 11.2829 32.7779 11.2754 32.7703C11.2754 32.7703 11.2754 32.7703 11.2679 32.7628C11.1624 32.6423 11.0494 32.5293 10.944 32.4088L10.9365 32.4013ZM11.6369 33.1545C11.5917 33.1093 11.5466 33.0641 11.5014 33.0189C11.7424 33.2674 11.9985 33.516 12.2546 33.7495C12.0437 33.5537 11.8403 33.3578 11.6369 33.1545ZM23.5903 3.99789C23.5376 3.99789 23.4924 3.99789 23.4397 3.99789C23.4397 3.99789 23.6355 3.99789 23.7409 3.99789C23.6882 3.99789 23.643 3.99789 23.5903 3.99789ZM31.3935 23.1971C31.3935 22.1275 32.2748 21.2538 33.3744 21.2538C34.4741 21.2538 35.3554 22.1275 35.3554 23.1971C35.3554 24.2666 34.4741 25.1404 33.3744 25.1404C32.2748 25.1404 31.3935 24.2666 31.3935 23.1971ZM19.8092 23.1971C19.8092 22.1275 20.6905 21.2538 21.7901 21.2538C22.8898 21.2538 23.7711 22.1275 23.7711 23.1971C23.7711 23.3025 23.7635 23.4155 23.7485 23.5134C23.5903 24.4549 22.7768 25.1404 21.7977 25.1404C20.698 25.1404 19.8167 24.2666 19.8167 23.1971H19.8092ZM24.1627 14.8892V11.4697C25.1042 10.9198 26.2943 10.5357 27.7932 10.5508H27.974C31.5065 10.6713 33.1334 13.2849 33.8113 14.8892H24.1627ZM23.7786 11.2513C24.0196 11.1006 24.2757 10.965 24.5393 10.837C24.2682 10.965 24.0121 11.1006 23.7786 11.2513ZM24.5845 10.8219C24.8482 10.7014 25.1268 10.596 25.4131 10.5056C25.1193 10.596 24.8406 10.7014 24.5845 10.8219ZM26.5127 10.257C26.8291 10.2118 27.1605 10.1817 27.4994 10.1742C27.153 10.1817 26.8216 10.2043 26.5127 10.257ZM33.9017 14.1888C33.9017 14.1888 33.9167 14.2114 33.9167 14.2264C33.9167 14.2189 33.9017 14.2038 33.9017 14.1888ZM32.4254 12.0948C32.4781 12.1476 32.5308 12.2003 32.576 12.2606C32.5233 12.2078 32.4781 12.1551 32.4254 12.0948ZM32.0563 10.3022C32.1919 10.3926 32.3275 10.4755 32.448 10.5734C32.3275 10.4755 32.1844 10.3926 32.0563 10.3022ZM28.3958 10.2043C28.4937 10.2118 28.5991 10.2194 28.697 10.2344C28.5991 10.2194 28.5012 10.2118 28.3958 10.2043ZM31.1073 11.0554C31.1449 11.078 31.1826 11.1081 31.2278 11.1307C31.1901 11.1081 31.1525 11.078 31.1073 11.0554ZM31.5893 11.3718C31.6496 11.4094 31.6948 11.4546 31.755 11.4998C31.7023 11.4546 31.6496 11.417 31.5893 11.3718ZM32.0262 11.7182C32.0789 11.7634 32.1392 11.8162 32.1919 11.8689C32.1392 11.8162 32.0865 11.771 32.0262 11.7182ZM20.5172 15.2432C20.5172 15.2432 20.5323 15.2056 20.5398 15.183C20.5398 15.1981 20.5248 15.2282 20.5172 15.2432ZM20.6076 15.0248C20.6076 15.0248 20.6377 14.957 20.6528 14.9194C20.6377 14.957 20.6151 14.9947 20.6076 15.0248ZM20.7507 14.7085C20.7733 14.6557 20.8034 14.6106 20.826 14.5503C20.7959 14.603 20.7733 14.6557 20.7507 14.7085ZM20.9541 14.3168C20.9842 14.2565 21.0219 14.1963 21.0595 14.1285C21.0219 14.1888 20.9842 14.2565 20.9541 14.3168ZM21.2252 13.8649C21.2704 13.7971 21.3156 13.7293 21.3608 13.654C21.3156 13.7218 21.2704 13.7971 21.2252 13.8649ZM21.5566 13.3753C21.6094 13.3 21.6621 13.2322 21.7224 13.1569C21.6621 13.2322 21.6094 13.3075 21.5566 13.3753ZM34.5419 12.9686C34.4816 12.8631 34.4063 12.7577 34.331 12.6522C34.3988 12.7577 34.4741 12.8631 34.5419 12.9686ZM35.6943 15.6274C35.6943 15.6274 35.6792 15.5747 35.6717 15.5445C35.6717 15.5747 35.6868 15.6048 35.6943 15.6274ZM35.6265 15.409C35.6115 15.3638 35.5964 15.311 35.5813 15.2583C35.5964 15.311 35.619 15.3638 35.6265 15.409ZM35.3629 14.6407C35.3328 14.5654 35.2951 14.475 35.2574 14.3921C35.2951 14.475 35.3328 14.5578 35.3629 14.6407ZM34.8733 13.5711C34.8206 13.4732 34.7603 13.3678 34.7001 13.2698C34.7603 13.3753 34.8206 13.4732 34.8733 13.5711ZM33.6531 11.7333C33.5627 11.6279 33.4573 11.5224 33.3594 11.417C33.4573 11.5224 33.5627 11.6203 33.6531 11.7333ZM33.0882 11.1383C32.9828 11.0328 32.8623 10.9424 32.7493 10.837C32.8623 10.9349 32.9828 11.0328 33.0882 11.1383ZM31.7174 10.0687C31.5743 9.97834 31.4086 9.91055 31.2504 9.8277C31.4086 9.91055 31.5667 9.97834 31.7174 10.0687ZM30.8889 9.64693C30.7232 9.57161 30.5349 9.51889 30.3541 9.4511C30.5349 9.51135 30.7232 9.57161 30.8889 9.64693Z" fill="#66EAE0"/>
  </g>
  <defs>
    <clipPath id="clip0_5035_18770">
      <rect width="48.7407" height="47" fill="white" transform="translate(0.259277 0.5)"/>
    </clipPath>
  </defs>
</svg>