<svg xmlns="http://www.w3.org/2000/svg" width="33" height="32" viewBox="0 0 33 32" fill="none">
  <path fill-rule="evenodd" clip-rule="evenodd" d="M2.26562 6.47813C2.69687 6.17813 3.22188 6 3.775 6H28.225C28.7781 6 29.3031 6.17813 29.7344 6.47813L17.3406 15.975C16.5531 16.5938 15.4562 16.5938 14.6594 15.975L2.26562 6.47813ZM16 17.6537C16.7125 17.6537 17.425 17.4193 18.025 16.9506L30.5594 7.35059C30.8313 7.80059 31 8.34434 31 8.92559V16.7546C29.6304 15.6567 27.8919 15 26 15C21.5817 15 18 18.5817 18 23C18 24.3014 18.3107 25.5301 18.862 26.6162H3.775C2.24688 26.6162 1 25.3037 1 23.6912V8.92559C1 8.34434 1.15938 7.80996 1.44063 7.35059L13.975 16.9506C14.5656 17.4193 15.2875 17.6537 16 17.6537Z" fill="#494E50"/>
  <path d="M25.9998 17.3125C24.684 17.3125 23.4089 17.7687 22.3918 18.6034C21.3747 19.4381 20.6785 20.5997 20.4218 21.8902C20.1651 23.1807 20.3638 24.5203 20.984 25.6807C21.6042 26.8411 22.6076 27.7506 23.8232 28.2541C25.0389 28.7577 26.3915 28.8242 27.6506 28.4422C28.9097 28.0603 29.9975 27.2537 30.7285 26.1597C31.4596 25.0657 31.7887 23.752 31.6598 22.4426C31.5309 21.1331 30.9519 19.9089 30.0216 18.9784C29.4947 18.4486 28.8679 18.0285 28.1776 17.7426C27.4872 17.4566 26.747 17.3104 25.9998 17.3125ZM25.9998 16C27.3842 16 28.7375 16.4105 29.8886 17.1797C31.0397 17.9488 31.9369 19.042 32.4667 20.3211C32.9965 21.6001 33.1351 23.0075 32.865 24.3654C32.595 25.7232 31.9283 26.9704 30.9494 27.9494C29.9704 28.9283 28.7232 29.595 27.3654 29.865C26.0075 30.1351 24.6001 29.9965 23.3211 29.4667C22.042 28.9369 20.9488 28.0397 20.1797 26.8886C19.4105 25.7375 19 24.3842 19 22.9998C19 21.1433 19.7375 19.3629 21.0502 18.0502C22.3629 16.7375 24.1433 16 25.9998 16ZM25.1248 25.6247H26.8747V27.3746H25.1248V25.6247ZM25.1248 18.6249H26.8747V23.8747H25.1248V18.6249Z" fill="#494E50"/>
</svg>