<svg xmlns="http://www.w3.org/2000/svg" width="24" height="18" viewBox="0 0 24 18" fill="none">
  <path d="M1.37657 0H22.6236C23.0023 0 23.3465 0.155079 23.5957 0.404105C23.8451 0.653521 24 0.99825 24 1.37657V15.9781C24 16.2634 23.9119 16.5292 23.7615 16.7497C23.734 16.821 23.691 16.8874 23.6322 16.9439C23.593 16.9808 23.5498 17.0111 23.5041 17.0339C23.2648 17.2333 22.9574 17.3548 22.6236 17.3548H1.37657C0.99825 17.3548 0.653716 17.1999 0.404105 16.9505C0.155079 16.7013 0 16.3572 0 15.9781V1.37657C0 0.997469 0.154689 0.65313 0.40391 0.404105C0.65313 0.154689 0.997469 0 1.37657 0ZM1.05587 15.399L8.50202 7.93405L1.05587 1.86291V15.399ZM9.32215 8.60261L1.64533 16.2988H22.2902L14.9538 8.60378L12.5353 10.6645C12.3456 10.8267 12.0616 10.8358 11.8608 10.6729L9.32215 8.60261ZM15.7568 7.91979L22.9441 15.4585V1.7965L15.7568 7.91979ZM1.73185 1.05587L12.1853 9.57918L22.1898 1.05587H1.73185Z" fill="#CA7100"/>
</svg>