<svg xmlns="http://www.w3.org/2000/svg" width="32" height="32" viewBox="0 0 32 32" fill="none">
  <path d="M4.8 14.2001C6.565 14.2001 8 12.7651 8 11.0001C8 9.2351 6.565 7.8001 4.8 7.8001C3.035 7.8001 1.6 9.2351 1.6 11.0001C1.6 12.7651 3.035 14.2001 4.8 14.2001ZM27.2 14.2001C28.965 14.2001 30.4 12.7651 30.4 11.0001C30.4 9.2351 28.965 7.8001 27.2 7.8001C25.435 7.8001 24 9.2351 24 11.0001C24 12.7651 25.435 14.2001 27.2 14.2001ZM28.8 15.8001H25.6C24.72 15.8001 23.925 16.1551 23.345 16.7301C25.36 17.8351 26.79 19.8301 27.1 22.2001H30.4C31.285 22.2001 32 21.4851 32 20.6001V19.0001C32 17.2351 30.565 15.8001 28.8 15.8001ZM16 15.8001C19.095 15.8001 21.6 13.2951 21.6 10.2001C21.6 7.1051 19.095 4.6001 16 4.6001C12.905 4.6001 10.4 7.1051 10.4 10.2001C10.4 13.2951 12.905 15.8001 16 15.8001ZM19.84 17.4001H19.425C18.385 17.9001 17.23 18.2001 16 18.2001C14.77 18.2001 13.62 17.9001 12.575 17.4001H12.16C8.98 17.4001 6.4 19.9801 6.4 23.1601V24.6001C6.4 25.9251 7.475 27.0001 8.8 27.0001H23.2C24.525 27.0001 25.6 25.9251 25.6 24.6001V23.1601C25.6 19.9801 23.02 17.4001 19.84 17.4001ZM8.655 16.7301C8.075 16.1551 7.28 15.8001 6.4 15.8001H3.2C1.435 15.8001 0 17.2351 0 19.0001V20.6001C0 21.4851 0.715 22.2001 1.6 22.2001H4.895C5.21 19.8301 6.64 17.8351 8.655 16.7301Z" fill="#494E50"/>
</svg>