<svg xmlns="http://www.w3.org/2000/svg" width="32" height="32" viewBox="0 0 32 32" fill="none">
  <path d="M5.5 6.04636C5.5 5.77022 5.27614 5.54636 5 5.54636H3.5C3.22386 5.54636 3 5.3225 3 5.04636V2.5C3 2.22386 3.22386 2 3.5 2H28.5C28.7761 2 29 2.22386 29 2.5L29 28.4619C29 28.7381 28.7761 28.9619 28.5 28.9619H26.5C26.2239 28.9619 26 28.7381 26 28.4619V6.04636C26 5.77021 25.7761 5.54636 25.5 5.54636H9C8.72386 5.54636 8.5 5.77021 8.5 6.04636V28.4619C8.5 28.7381 8.27614 28.9619 8 28.9619H6C5.72386 28.9619 5.5 28.7381 5.5 28.4619V6.04636Z" fill="#494E50"/>
  <path d="M15.2652 29H12.5C12.2239 29 12 28.7761 12 28.5V9.5C12 9.22386 12.2239 9 12.5 9H19.1395C22.0864 9 23.9961 11.4242 23.9961 15.2132C23.9961 19.0021 22.0314 21.7603 19.0059 21.7603H15.7613C15.4852 21.7603 15.2613 21.9841 15.2613 22.2603V28.9961C15.2613 28.9982 15.2631 29 15.2652 29ZM18.2908 18.328C18.2908 18.3291 18.2917 18.33 18.2929 18.33C19.9378 18.3292 20.7348 17.352 20.7348 15.2915C20.7348 13.2301 19.9096 12.422 17.8664 12.422H15.7652C15.4891 12.422 15.2652 12.6458 15.2652 12.922V17.8259C15.2652 18.1021 15.4891 18.3259 15.7652 18.3259H18.2887C18.2898 18.3259 18.2908 18.3268 18.2908 18.328Z" fill="#494E50"/>
</svg>