<svg xmlns="http://www.w3.org/2000/svg" width="16" height="15" viewBox="0 0 16 15" fill="none">
  <g clip-path="url(#clip0_5035_19089)">
    <path d="M13.7039 -3H2.26389C-0.649771 -3 -3.01611 -0.633658 -3.01611 2.28V13.72C-3.01611 16.6337 -0.649771 19 2.26389 19H13.7039C16.6175 19 18.9839 16.6337 18.9839 13.72V2.28C18.9839 -0.633658 16.6175 -3 13.7039 -3ZM17.2239 13.72C17.2239 15.6624 15.6463 17.24 13.7039 17.24H8.77267C9.18584 16.1078 9.17511 14.6805 9.07316 13.6127C9.19657 13.5376 9.30925 13.4517 9.41657 13.3551L12.1585 10.8063C12.4644 10.522 12.6361 10.1249 12.6361 9.70634V7.11463H12.8078C13.3068 7.11463 13.7093 6.7122 13.7093 6.21317C13.7093 5.71415 13.3068 5.31171 12.8078 5.31171H11.0263V2.72537C11.0263 2.22634 10.6239 1.8239 10.1249 1.8239C9.62584 1.8239 9.2234 2.22634 9.2234 2.72537V5.31171H6.73364V2.72537C6.73364 2.22634 6.3312 1.8239 5.83218 1.8239C5.33316 1.8239 4.93072 2.22634 4.93072 2.72537V5.31171H3.14925C2.65023 5.31171 2.24779 5.71415 2.24779 6.21317C2.24779 6.7122 2.65023 7.11463 3.14925 7.11463H3.32096V9.70634C3.32096 10.1249 3.49803 10.522 3.79852 10.8063L6.54047 13.3551C6.75511 13.5537 6.99657 13.6985 7.2595 13.7898C7.37755 15.1098 7.30779 16.5961 6.79803 17.1059C6.75511 17.1488 6.71755 17.1917 6.69072 17.24H2.25316C0.310716 17.24 -1.26684 15.6624 -1.26684 13.72V2.28C-1.26684 0.337561 0.310716 -1.24 2.25316 -1.24H13.6932C15.6356 -1.24 17.2132 0.337561 17.2132 2.28V13.72H17.2239Z" fill="black"/>
  </g>
  <defs>
    <clipPath id="clip0_5035_19089">
      <rect width="14.868" height="15" fill="white" transform="translate(0.983887)"/>
    </clipPath>
  </defs>
</svg>