<svg xmlns="http://www.w3.org/2000/svg" width="14" height="15" viewBox="0 0 14 15" fill="none">
  <g clip-path="url(#clip0_5035_19092)">
    <path d="M12.1249 -3H0.684907C-2.22875 -3 -4.59509 -0.633658 -4.59509 2.28V13.72C-4.59509 16.6337 -2.22875 19 0.684907 19H12.1249C15.0386 19 17.4049 16.6337 17.4049 13.72V2.28C17.4049 -0.633658 15.0386 -3 12.1249 -3ZM15.6449 13.72C15.6449 15.6624 14.0673 17.24 12.1249 17.24H7.19369C7.60686 16.1078 7.59613 14.6805 7.49418 13.6127C7.61759 13.5376 7.73027 13.4517 7.83759 13.3551L10.5795 10.8063C10.8854 10.522 11.0571 10.1249 11.0571 9.70634V7.11463H11.2288C11.7278 7.11463 12.1303 6.7122 12.1303 6.21317C12.1303 5.71415 11.7278 5.31171 11.2288 5.31171H9.44735V2.72537C9.44735 2.22634 9.04491 1.8239 8.54588 1.8239C8.04686 1.8239 7.64442 2.22634 7.64442 2.72537V5.31171H5.15466V2.72537C5.15466 2.22634 4.75222 1.8239 4.2532 1.8239C3.75418 1.8239 3.35174 2.22634 3.35174 2.72537V5.31171H1.57027C1.07125 5.31171 0.66881 5.71415 0.66881 6.21317C0.66881 6.7122 1.07125 7.11463 1.57027 7.11463H1.74198V9.70634C1.74198 10.1249 1.91905 10.522 2.21954 10.8063L4.96149 13.3551C5.17613 13.5537 5.41759 13.6985 5.68052 13.7898C5.79857 15.1098 5.72881 16.5961 5.21905 17.1059C5.17613 17.1488 5.13857 17.1917 5.11174 17.24H0.674176C-1.26826 17.24 -2.84582 15.6624 -2.84582 13.72V2.28C-2.84582 0.337561 -1.26826 -1.24 0.674176 -1.24H12.1142C14.0566 -1.24 15.6342 0.337561 15.6342 2.28V13.72H15.6449Z" fill="white"/>
  </g>
  <defs>
    <clipPath id="clip0_5035_19092">
      <rect width="12.8856" height="15" fill="white" transform="translate(0.404907)"/>
    </clipPath>
  </defs>
</svg>